<svg width="362" height="232" viewBox="0 0 362 232" fill="none" xmlns="http://www.w3.org/2000/svg">
<g clip-path="url(#clip0_42002_3019)">
<path d="M97.1116 57.1625L86.4344 37.5376C86.0998 36.9664 85.9631 36.2896 86.0101 35.6877L86.7862 25.7438L88.0424 25.8418C88.9217 25.9105 89.7271 25.3072 89.7975 24.4043C89.8633 23.5616 89.1665 22.7745 88.2871 22.7058L70.4931 21.3171C69.6138 21.2484 68.8083 21.8517 68.7374 22.7606C68.6716 23.6033 69.369 24.3844 70.2484 24.4531L71.5046 24.5511L70.7332 34.4348C70.6815 35.0969 70.4461 35.6841 70.0269 36.1965L56.4924 53.9923C55.0133 55.9419 54.7578 58.4049 55.7867 60.6048C56.878 62.8156 58.984 64.2517 61.4964 64.4478L90.4832 66.7101C93.0018 66.9067 95.3616 65.8191 96.7199 63.7995C98.1359 61.851 98.2656 59.3782 97.1116 57.1625ZM69.8799 55.1643C68.5609 55.0613 67.5729 53.9547 67.6721 52.6846C67.7707 51.4206 68.9184 50.4807 70.2374 50.5836C71.5564 50.6866 72.5443 51.7932 72.4457 53.0572C72.3466 54.3273 71.1989 55.2672 69.8799 55.1643ZM80.15 61.3011C78.6237 61.182 77.4789 59.8996 77.5935 58.4309C77.7076 56.9682 79.0376 55.879 80.5638 55.9981C82.0964 56.1177 83.2412 57.4001 83.127 58.8628C83.0124 60.3315 81.6825 61.4207 80.15 61.3011ZM78.7868 48.4046C78.8676 47.3693 79.806 46.6007 80.88 46.6846C81.9604 46.7689 82.7681 47.6737 82.6872 48.709C82.6069 49.7383 81.6686 50.5069 80.5882 50.4225C79.5142 50.3387 78.7064 49.4339 78.7868 48.4046ZM80.1576 44.1997C76.4327 42.4556 72.7363 42.046 69.2725 42.6235L72.7281 38.1029C73.4989 37.1336 73.9069 35.9542 74.0055 34.6902L74.7769 24.8065L83.5766 25.4933L82.8052 35.377C82.7112 36.5808 83.0004 37.8146 83.5439 38.9471L87.3559 45.9727C84.9644 45.8467 82.5431 45.2943 80.1576 44.1997Z" fill="#E5D0FF"/>
</g>
<path d="M199.919 82.4396L206.039 85.9625H218.255V125.923C218.255 143.871 201.488 158.477 180.889 158.477C160.29 158.477 143.523 143.871 143.523 125.923V85.9625H155.79L161.885 82.4396H140V125.923C140 145.826 158.336 162 180.889 162C203.442 162 221.778 145.826 221.778 125.923V82.4396H199.919Z" fill="url(#paint0_linear_42002_3019)"/>
<path d="M210.128 88.3281L212.16 89.511H214.732V125.923C214.732 141.943 199.533 154.954 180.889 154.954C162.245 154.954 147.046 141.943 147.046 125.923V89.511H149.695L151.727 88.3281H145.889V125.923C145.889 142.586 161.576 156.137 180.889 156.137C200.202 156.137 215.889 142.586 215.889 125.923V88.3281H210.128Z" fill="url(#paint1_linear_42002_3019)"/>
<path d="M208.2 115.303L206.965 115.432C202.825 113.709 191.51 109.595 181.172 110.958V144.669C181.172 144.669 190.661 140.606 205.422 144.335L208.611 116.152L208.2 115.303Z" fill="url(#paint2_linear_42002_3019)"/>
<path d="M181.172 110.109V143.821C181.172 143.821 190.507 139.758 205.062 143.486L208.2 115.303C208.2 115.303 193.927 108.386 181.172 110.109Z" fill="url(#paint3_linear_42002_3019)"/>
<path d="M181.172 110.108V143.82C181.172 143.82 189.838 138.908 203.339 141.351L206.271 112.859C206.271 112.859 193.027 107.228 181.172 110.108Z" fill="url(#paint4_linear_42002_3019)"/>
<path d="M181.172 110.108V143.82C181.172 143.82 189.195 138.111 201.693 139.32L204.394 110.571C204.394 110.571 192.127 106.148 181.172 110.108Z" fill="url(#paint5_linear_42002_3019)"/>
<path d="M181.172 110.108V143.82C181.172 143.82 188.552 137.289 200.048 137.186L202.516 108.18C202.516 108.18 191.253 105.017 181.172 110.108Z" fill="url(#paint6_linear_42002_3019)"/>
<g style="mix-blend-mode:multiply">
<path d="M182.483 133.304V134.332C184.772 132.764 190.815 129.241 199.225 129.241C199.276 129.241 199.336 129.249 199.405 129.267L199.482 128.392C199.396 128.392 199.31 128.392 199.225 128.392C191.098 128.392 185.158 131.529 182.483 133.304Z" fill="#F8EBCF"/>
<path d="M182.483 128.675V129.704C184.669 128.264 190.301 125.204 198.119 125.204C198.659 125.204 199.199 125.229 199.765 125.255L199.842 124.381C199.259 124.346 198.685 124.329 198.119 124.329C190.558 124.329 185.029 127.081 182.483 128.675Z" fill="#F8EBCF"/>
<path d="M182.483 138.986C184.746 137.34 190.738 133.638 199.07 133.303L199.148 132.429C191.073 132.738 185.158 136.08 182.483 137.906V138.986Z" fill="#F8EBCF"/>
<path d="M194.853 111.935C188.964 111.935 184.644 113.683 182.483 114.789V115.766C184.361 114.737 188.758 112.809 194.853 112.809C196.447 112.809 198.119 112.937 200.768 113.4L200.845 112.526C198.196 112.063 196.473 111.935 194.853 111.935Z" fill="#F8EBCF"/>
<path d="M195.933 116.1C189.504 116.1 184.772 118.157 182.483 119.417V120.394C184.464 119.263 189.272 116.974 195.933 116.974C197.193 116.974 198.53 117.051 200.433 117.308L200.511 116.434C198.582 116.203 197.219 116.1 195.933 116.1Z" fill="#F8EBCF"/>
<path d="M197.013 120.24C190.018 120.24 184.901 122.632 182.483 124.046V125.049C184.566 123.763 189.787 121.114 197.013 121.114C197.965 121.114 198.916 121.166 200.099 121.294L200.176 120.42C198.968 120.292 197.965 120.24 197.013 120.24Z" fill="#F8EBCF"/>
</g>
<path d="M181.172 143.821C182.843 142.921 184.618 142.278 186.444 141.764C188.27 141.249 190.147 140.915 192.05 140.709C192.513 140.658 192.976 140.632 193.464 140.581L194.159 140.529L194.879 140.504L196.293 140.478L197.733 140.529C198.685 140.529 199.61 140.658 200.562 140.735C201.513 140.838 202.439 141.018 203.391 141.146L203.134 141.326C203.596 136.569 204.137 131.838 204.625 127.081L205.422 119.983L206.271 112.86L205.654 120.009L204.985 127.132C204.522 131.863 204.059 136.621 203.571 141.352L203.545 141.584L203.314 141.558C202.388 141.404 201.462 141.249 200.511 141.146C199.585 141.069 198.659 140.915 197.707 140.915L196.293 140.864H194.879L194.184 140.889L193.49 140.915C193.001 140.941 192.538 140.966 192.076 141.018C190.198 141.172 188.321 141.506 186.495 141.944C184.669 142.406 182.869 142.972 181.172 143.821Z" fill="url(#paint7_linear_42002_3019)"/>
<path d="M181.172 143.82C182.638 142.817 184.258 142.019 185.904 141.325C187.575 140.682 189.273 140.142 191.021 139.757C192.77 139.397 194.544 139.088 196.344 139.037C197.245 138.934 198.145 138.985 199.019 138.959C199.919 138.985 200.819 139.062 201.719 139.114L201.488 139.294C201.899 134.511 202.414 129.702 202.851 124.919L203.596 117.745L204.394 110.571L203.828 117.771L203.236 124.971C202.774 129.754 202.388 134.537 201.899 139.319L201.873 139.525H201.668C200.793 139.474 199.919 139.371 199.019 139.371C198.145 139.371 197.245 139.319 196.37 139.397C194.596 139.474 192.821 139.731 191.098 140.039C189.35 140.374 187.652 140.914 185.981 141.505C184.309 142.122 182.663 142.842 181.172 143.82Z" fill="url(#paint8_linear_42002_3019)"/>
<path d="M181.172 143.82C182.458 142.714 183.872 141.763 185.364 140.94C186.855 140.091 188.398 139.397 190.018 138.831C191.613 138.24 193.259 137.777 194.956 137.494C196.627 137.16 198.35 137.057 200.048 136.98L199.842 137.186C200.228 132.326 200.691 127.517 201.102 122.683L201.796 115.431L202.516 108.18L202.028 115.431L201.462 122.708C201.076 127.543 200.691 132.377 200.253 137.211L200.228 137.391H200.048C198.376 137.443 196.679 137.546 195.007 137.854C193.361 138.137 191.716 138.549 190.121 139.089C188.501 139.629 186.958 140.323 185.441 141.094C183.949 141.866 182.483 142.74 181.172 143.82Z" fill="url(#paint9_linear_42002_3019)"/>
<path d="M154.118 115.303L155.353 115.432C159.493 113.709 170.808 109.595 181.172 110.958V144.669C181.172 144.669 171.682 140.606 156.896 144.335L153.707 116.152L154.118 115.303Z" fill="url(#paint10_linear_42002_3019)"/>
<path d="M181.172 110.109V143.821C181.172 143.821 171.811 139.758 157.256 143.486L154.118 115.303C154.118 115.303 168.391 108.386 181.172 110.109Z" fill="url(#paint11_linear_42002_3019)"/>
<path d="M181.172 110.108V143.82C181.172 143.82 172.48 138.908 158.979 141.351L156.073 112.859C156.073 112.859 169.317 107.228 181.172 110.108Z" fill="url(#paint12_linear_42002_3019)"/>
<path d="M181.172 110.108V143.82C181.172 143.82 173.123 138.111 160.624 139.32L157.95 110.571C157.95 110.571 170.191 106.148 181.172 110.108Z" fill="url(#paint13_linear_42002_3019)"/>
<path d="M181.172 110.108V143.82C181.172 143.82 173.791 137.289 162.27 137.186L159.802 108.18C159.802 108.18 171.065 105.017 181.172 110.108Z" fill="url(#paint14_linear_42002_3019)"/>
<g style="mix-blend-mode:multiply">
<path d="M179.86 133.304V134.332C177.571 132.764 171.502 129.241 163.119 129.241C163.05 129.241 162.982 129.249 162.913 129.267L162.836 128.392C162.939 128.392 163.033 128.392 163.119 128.392C171.219 128.392 177.186 131.529 179.86 133.304Z" fill="#F8EBCF"/>
<path d="M179.86 128.675V129.704C177.649 128.264 172.017 125.204 164.225 125.204C163.685 125.204 163.119 125.229 162.579 125.255L162.502 124.381C163.085 124.346 163.659 124.329 164.225 124.329C171.76 124.329 177.314 127.081 179.86 128.675Z" fill="#F8EBCF"/>
<path d="M179.86 138.986C177.571 137.34 171.58 133.638 163.273 133.303L163.196 132.429C171.245 132.738 177.186 136.08 179.86 137.906V138.986Z" fill="#F8EBCF"/>
<path d="M167.465 111.935C173.354 111.935 177.7 113.683 179.86 114.789V115.766C177.957 114.737 173.585 112.809 167.465 112.809C165.896 112.809 164.199 112.937 161.55 113.4L161.499 112.526C164.148 112.063 165.871 111.935 167.465 111.935Z" fill="#F8EBCF"/>
<path d="M166.385 116.1C172.84 116.1 177.571 118.157 179.86 119.417V120.394C177.854 119.263 173.071 116.974 166.385 116.974C165.125 116.974 163.813 117.051 161.884 117.308L161.833 116.434C163.736 116.203 165.099 116.1 166.385 116.1Z" fill="#F8EBCF"/>
<path d="M165.305 120.24C172.3 120.24 177.443 122.632 179.86 124.046V125.049C177.752 123.763 172.557 121.114 165.305 121.114C164.379 121.114 163.402 121.166 162.245 121.294L162.167 120.42C163.35 120.292 164.353 120.24 165.305 120.24Z" fill="#F8EBCF"/>
</g>
<path d="M181.172 143.821C179.475 142.972 177.649 142.406 175.823 141.944C173.997 141.506 172.145 141.172 170.268 141.018C169.805 140.966 169.317 140.941 168.854 140.915L168.159 140.889L167.439 140.864H166.025L164.611 140.915C163.685 140.915 162.759 141.069 161.807 141.146C160.882 141.249 159.956 141.404 159.004 141.558L158.799 141.584L158.773 141.352C158.259 136.621 157.821 131.863 157.333 127.132L156.69 120.009L156.073 112.86L156.921 119.983L157.693 127.081C158.207 131.838 158.722 136.569 159.184 141.326L158.953 141.146C159.879 141.018 160.83 140.838 161.756 140.735C162.708 140.658 163.659 140.529 164.611 140.529L166.025 140.478L167.465 140.504L168.159 140.529L168.879 140.581C169.342 140.632 169.831 140.658 170.294 140.709C172.171 140.915 174.048 141.249 175.874 141.764C177.7 142.278 179.5 142.921 181.172 143.821Z" fill="url(#paint15_linear_42002_3019)"/>
<path d="M181.172 143.82C179.654 142.842 178.034 142.122 176.363 141.505C174.691 140.914 172.994 140.374 171.245 140.039C169.497 139.731 167.748 139.474 165.973 139.397C165.073 139.319 164.199 139.371 163.299 139.371C162.425 139.371 161.55 139.474 160.65 139.525H160.444L160.419 139.319C159.956 134.537 159.544 129.754 159.107 124.971L158.49 117.771L157.95 110.571L158.721 117.745L159.467 124.919C159.93 129.702 160.419 134.511 160.83 139.294L160.624 139.114C161.499 139.062 162.399 138.985 163.299 138.959C164.199 138.985 165.099 138.934 165.999 139.037C167.774 139.088 169.548 139.397 171.297 139.757C173.045 140.142 174.768 140.682 176.414 141.325C178.086 142.019 179.68 142.817 181.172 143.82Z" fill="url(#paint16_linear_42002_3019)"/>
<path d="M181.172 143.82C179.835 142.74 178.394 141.866 176.877 141.094C175.386 140.323 173.817 139.629 172.222 139.089C170.628 138.549 168.982 138.137 167.311 137.854C165.665 137.546 163.968 137.443 162.27 137.391H162.09V137.211C161.627 132.377 161.267 127.543 160.856 122.708L160.316 115.431L159.802 108.18L160.547 115.431L161.216 122.683C161.653 127.517 162.09 132.326 162.476 137.186L162.296 136.98C163.993 137.057 165.691 137.16 167.388 137.494C169.059 137.777 170.705 138.24 172.325 138.831C173.92 139.397 175.488 140.091 176.954 140.94C178.446 141.763 179.886 142.714 181.172 143.82Z" fill="url(#paint17_linear_42002_3019)"/>
<path d="M208.971 91.9802L180.863 75.78L152.884 91.9802H150.029V93.6259L180.915 111.42L211.748 93.6002V91.9802H208.971Z" fill="url(#paint18_linear_42002_3019)"/>
<path d="M180.915 111.42L163.505 101.391V108.231C163.505 110.829 165.202 113.4 168.596 115.354C175.36 119.263 186.469 119.263 193.233 115.329C194.93 114.351 196.19 113.22 197.039 112.011C197.887 110.803 198.299 109.491 198.299 108.206V101.366L180.915 111.42Z" fill="url(#paint19_linear_42002_3019)"/>
<path d="M180.863 74.1852L150.029 92.031L180.915 109.825L211.748 91.9796L180.863 74.1852Z" fill="url(#paint20_linear_42002_3019)"/>
<g style="mix-blend-mode:multiply">
<path d="M198.299 103.757V101.366L180.915 111.42L163.505 101.391V103.783L180.915 113.837L198.299 103.757Z" fill="#DCE8EF"/>
</g>
<path d="M183.795 92.0052C183.795 92.9567 182.483 93.7281 180.889 93.7281C179.294 93.7281 177.983 92.9567 177.983 92.0052C177.983 91.0538 179.294 90.2823 180.889 90.2823C182.483 90.2823 183.795 91.0538 183.795 92.0052Z" fill="url(#paint21_linear_42002_3019)"/>
<path d="M196.524 116.536C196.19 116.536 195.907 116.254 195.907 115.919V112.294C195.907 111.959 196.19 111.676 196.524 111.676C196.858 111.676 197.141 111.959 197.141 112.294V115.919C197.141 116.254 196.858 116.536 196.524 116.536Z" fill="url(#paint22_linear_42002_3019)"/>
<path d="M196.525 114.276C196.062 114.276 195.701 113.89 195.701 113.452V112.577C195.701 112.114 196.062 111.754 196.525 111.754C196.962 111.754 197.348 112.114 197.348 112.577V113.452C197.348 113.89 196.962 114.276 196.525 114.276Z" fill="url(#paint23_radial_42002_3019)"/>
<path d="M196.524 112.705C196.293 112.705 196.113 112.525 196.113 112.294V101.031L181.069 92.3653C180.863 92.2367 180.812 92.0053 180.914 91.7996C181.043 91.5939 181.274 91.5424 181.48 91.6453L196.73 100.44C196.859 100.517 196.936 100.645 196.936 100.8V112.294C196.936 112.525 196.756 112.705 196.524 112.705Z" fill="url(#paint24_linear_42002_3019)"/>
<path d="M215.092 70.3279L216.094 72.3593L218.358 72.6936C218.82 72.7707 219.026 73.3622 218.666 73.6965L217.046 75.2908L217.432 77.5279C217.509 77.9908 217.02 78.3765 216.583 78.1451L214.552 77.0908L212.546 78.1451C212.108 78.3765 211.62 77.9908 211.697 77.5279L212.083 75.2908L210.463 73.6965C210.103 73.3622 210.283 72.7707 210.771 72.6936L213.034 72.3593L214.037 70.3279C214.243 69.8907 214.886 69.8907 215.092 70.3279Z" fill="url(#paint25_radial_42002_3019)"/>
<path d="M199.508 70.3279L200.511 72.3593L202.748 72.6936C203.236 72.7707 203.442 73.3622 203.082 73.6965L201.462 75.2908L201.848 77.5279C201.925 77.9908 201.411 78.3765 200.973 78.1451L198.968 77.0908L196.962 78.1451C196.525 78.3765 196.01 77.9908 196.113 77.5279L196.499 75.2908L194.853 73.6965C194.519 73.3622 194.699 72.7707 195.187 72.6936L197.45 72.3593L198.453 70.3279C198.659 69.8907 199.276 69.8907 199.508 70.3279Z" fill="url(#paint26_radial_42002_3019)"/>
<path d="M165.176 70.3279L166.205 72.3593L168.442 72.6936C168.931 72.7707 169.111 73.3622 168.776 73.6965L167.131 75.2908L167.516 77.5279C167.619 77.9908 167.105 78.3765 166.668 78.1451L164.662 77.0908L162.656 78.1451C162.219 78.3765 161.704 77.9908 161.782 77.5279L162.167 75.2908L160.547 73.6965C160.187 73.3622 160.393 72.7707 160.882 72.6936L163.119 72.3593L164.122 70.3279C164.353 69.8907 164.97 69.8907 165.176 70.3279Z" fill="url(#paint27_radial_42002_3019)"/>
<path d="M149.592 70.3279L150.595 72.3593L152.858 72.6936C153.347 72.7707 153.527 73.3622 153.192 73.6965L151.547 75.2908L151.932 77.5279C152.009 77.9908 151.521 78.3765 151.084 78.1451L149.078 77.0908L147.046 78.1451C146.635 78.3765 146.12 77.9908 146.198 77.5279L146.583 75.2908L144.963 73.6965C144.603 73.3622 144.809 72.7707 145.272 72.6936L147.535 72.3593L148.538 70.3279C148.769 69.8907 149.386 69.8907 149.592 70.3279Z" fill="url(#paint28_radial_42002_3019)"/>
<g clip-path="url(#clip1_42002_3019)">
<path d="M12.46 101.43L13.955 118.336L36.5335 116.34L34.5785 94.2315L17.3124 95.7583C14.3784 96.0177 12.2059 98.5569 12.46 101.43ZM20.1674 105.336L22.8238 105.101L22.5937 102.5C22.5302 101.782 23.0734 101.147 23.8069 101.082C24.5405 101.017 25.1866 101.547 25.2501 102.265L25.4801 104.866L28.1365 104.631C28.8697 104.566 29.5162 105.096 29.5797 105.814C29.6432 106.532 29.1001 107.167 28.3665 107.232L25.7101 107.467L25.9401 110.068C26.0036 110.786 25.4605 111.421 24.727 111.486C23.9934 111.551 23.3473 111.021 23.2838 110.303L23.0538 107.702L20.3974 107.937C19.6638 108.002 19.0177 107.472 18.9542 106.754C18.8907 106.035 19.4338 105.401 20.1674 105.336Z" fill="#FFDA6E"/>
<path d="M54.501 92.4694L37.2349 93.9962L39.1898 116.104L61.7684 114.108L60.2734 97.2014C60.0193 94.3285 57.435 92.21 54.501 92.4694ZM53.601 105L45.6322 105.705C44.8987 105.77 44.2526 105.24 44.189 104.522C44.1255 103.803 44.6686 103.168 45.4022 103.104L53.371 102.399C54.1046 102.334 54.7507 102.864 54.8142 103.582C54.8777 104.301 54.3346 104.935 53.601 105Z" fill="#FFDA6E"/>
<path d="M15.6801 137.844C15.9341 140.716 18.5185 142.835 21.4524 142.576L38.7186 141.049L36.7636 118.941L14.1851 120.937L15.6801 137.844ZM22.5332 129.486C21.9778 129.014 21.9197 128.19 22.403 127.644C22.8747 127.112 23.6907 127.04 24.2485 127.481L26.2894 129.154L28.0047 127.149C28.4884 126.603 29.3305 126.543 29.8858 127.015C30.4272 127.475 30.4979 128.274 30.0456 128.822L28.3299 130.827L30.3708 132.5C30.9424 132.952 31.0298 133.774 30.5659 134.336C30.102 134.898 29.2624 134.986 28.6908 134.534C28.6786 134.525 28.6671 134.515 28.6551 134.505L26.6146 132.832L24.8989 134.837C24.4156 135.383 23.5735 135.443 23.0182 134.971C22.4764 134.511 22.4058 133.712 22.8584 133.164L24.5737 131.159L22.5332 129.486Z" fill="#FFDA6E"/>
<path d="M41.3749 140.814L58.641 139.287C61.575 139.027 63.7475 136.488 63.4934 133.615L61.9984 116.709L39.4199 118.706L41.3749 140.814ZM47.3573 125.212L55.3261 124.508C56.0597 124.443 56.7057 124.972 56.7693 125.691C56.8328 126.409 56.2897 127.044 55.5561 127.109L47.5873 127.813C46.8537 127.878 46.2076 127.349 46.1441 126.63C46.0806 125.912 46.6237 125.277 47.3573 125.212ZM47.8173 130.414L55.786 129.709C56.5196 129.644 57.1657 130.174 57.2292 130.892C57.2928 131.611 56.7496 132.246 56.0161 132.31L48.0473 133.015C47.3137 133.08 46.6676 132.55 46.6041 131.832C46.5406 131.114 47.0837 130.479 47.8173 130.414Z" fill="#FFDA6E"/>
</g>
<g clip-path="url(#clip2_42002_3019)">
<path d="M76.0548 175.401C64.9044 174.399 54.9636 182.923 53.9975 194.318C53.6752 198.119 54.38 201.764 55.8749 204.971C56.0282 205.3 56.0328 205.681 55.8866 206.014L53.2101 212.118C52.824 212.998 53.5191 213.97 54.4569 213.861L61.9684 212.989C62.2554 212.956 62.545 213.027 62.7835 213.192C65.5694 215.124 68.868 216.371 72.4683 216.674C83.6141 217.612 93.4581 209.113 94.413 197.727C95.3657 186.368 87.1553 176.398 76.0548 175.401ZM62.9859 197.545C62.9074 198.481 62.101 199.177 61.1849 199.1C60.2688 199.024 59.5896 198.203 59.6681 197.267L60.0769 192.394C60.1554 191.458 60.9617 190.762 61.8779 190.839C62.794 190.916 63.4731 191.736 63.3946 192.672L62.9859 197.545ZM69.0238 201.636C68.9453 202.572 68.1389 203.268 67.2228 203.192C66.3067 203.115 65.6276 202.294 65.7061 201.358L66.712 189.366C66.7905 188.43 67.5968 187.734 68.513 187.811C69.4291 187.887 70.1082 188.708 70.0297 189.644L69.0238 201.636ZM75.6589 198.608C75.5804 199.544 74.774 200.24 73.8579 200.163C72.9418 200.087 72.2627 199.266 72.3412 198.33L72.7499 193.457C72.8284 192.521 73.6348 191.825 74.5509 191.902C75.467 191.979 76.1461 192.799 76.0676 193.735L75.6589 198.608ZM81.8378 201.017C81.7593 201.953 80.953 202.65 80.0368 202.573C79.1207 202.496 78.4416 201.675 78.5201 200.739L79.2438 192.11C79.3223 191.175 80.1287 190.478 81.0448 190.555C81.9609 190.632 82.6401 191.453 82.5616 192.389L81.8378 201.017ZM88.4449 198.321C88.3664 199.257 87.5601 199.954 86.6439 199.877C85.7278 199.8 85.0487 198.979 85.1272 198.043L85.3095 195.869C85.388 194.934 86.1944 194.237 87.1105 194.314C88.0266 194.391 88.7058 195.212 88.6273 196.148L88.4449 198.321Z" fill="#BDE7FF"/>
<path d="M105.866 201.604C105.777 201.251 105.845 200.876 106.051 200.578C108.056 197.67 109.357 194.199 109.675 190.405C110.632 179.005 102.359 169.004 91.1982 168.068C86.0431 167.636 81.1999 169.19 77.3681 172.126C90.2653 173.85 98.8149 185.729 97.7306 198.006C97.415 201.836 96.1962 205.552 94.1697 208.841C95.4581 208.517 96.7108 208.074 97.8697 207.532C98.1324 207.409 98.4291 207.388 98.7063 207.468L105.968 209.579C106.875 209.843 107.722 209 107.488 208.068L105.866 201.604Z" fill="#BDE7FF"/>
</g>
<g clip-path="url(#clip3_42002_3019)">
<path d="M257.378 169.31C254.932 169.442 252.936 171.118 252.284 173.342C252.155 173.78 252.247 174.253 252.531 174.611C252.814 174.969 253.254 175.167 253.71 175.142L263.299 174.622C263.131 171.52 260.48 169.141 257.378 169.31Z" fill="#FFECC8"/>
<path d="M280.372 210.499C280.173 212.711 279.218 214.711 277.787 216.272L296.264 215.269C298.857 215.129 301.049 213.593 302.151 211.43C302.379 210.982 302.351 210.446 302.076 210.025C301.802 209.603 301.323 209.362 300.821 209.389L280.371 210.499L280.372 210.499Z" fill="#FFECC8"/>
<path d="M288.046 167.645L263.611 168.971C264.618 169.972 267.478 172.176 265.767 184.52C264.667 192.994 261.913 201.845 262.45 210.349C262.806 214.077 266.034 216.91 269.808 216.705C273.679 216.495 276.658 213.174 276.448 209.303C276.406 208.527 277 207.865 277.776 207.823L291.623 207.071C291.557 201.993 292.564 196.829 293.541 191.82C294.655 186.099 295.765 180.129 295.448 174.285C295.238 170.413 291.917 167.435 288.046 167.645ZM286.899 198.69L269.136 199.654C268.361 199.696 267.698 199.102 267.656 198.326C267.614 197.551 268.208 196.888 268.984 196.846L286.747 195.882C287.522 195.84 288.185 196.434 288.227 197.21C288.269 197.985 287.675 198.648 286.899 198.69ZM287.93 193.001L270.204 193.963C269.428 194.005 268.765 193.41 268.723 192.635C268.681 191.859 269.276 191.197 270.051 191.155L287.777 190.192C288.553 190.15 289.215 190.745 289.257 191.52C289.3 192.296 288.705 192.959 287.93 193.001ZM288.997 187.31L271.193 188.276C270.418 188.318 269.755 187.723 269.713 186.948C269.671 186.172 270.265 185.51 271.041 185.468L288.844 184.501C289.62 184.459 290.283 185.054 290.325 185.829C290.367 186.605 289.772 187.268 288.997 187.31ZM289.763 181.635L271.86 182.606C271.085 182.649 270.422 182.054 270.38 181.278C270.338 180.503 270.932 179.84 271.708 179.798L289.611 178.826C290.386 178.784 291.049 179.379 291.091 180.154C291.133 180.93 290.539 181.593 289.763 181.635Z" fill="#FFECC8"/>
</g>
<g clip-path="url(#clip4_42002_3019)">
<path d="M326.948 19.3104L287.905 22.4148C285.758 22.5855 284.137 24.4454 284.304 26.5467L286.734 57.1167C286.902 59.2174 288.796 60.7984 290.943 60.6277L308.512 59.2307L308.816 63.0516L302.96 63.5173C300.803 63.6887 299.191 65.537 299.359 67.6492L322.785 65.7825C322.617 63.6744 320.733 62.1006 318.576 62.2721L312.72 62.7378L312.416 58.9203L329.986 57.5234C332.133 57.3527 333.754 55.4922 333.587 53.3915L331.156 22.8215C330.989 20.7201 329.095 19.1397 326.948 19.3104ZM301.793 45.2281L299.884 47.4189L294.007 42.5161C293.185 41.8299 293.089 40.6211 293.792 39.8141L298.82 34.0441L301.052 35.9057L296.66 40.945L301.793 45.2281ZM309.177 48.6026L306.175 48.8413L308.714 31.335L311.716 31.0962L309.177 48.6026ZM324.098 40.1236L319.07 45.8935L316.839 44.0319L321.231 38.992L316.097 34.71L318.007 32.5192L323.884 37.422C324.705 38.1038 324.801 39.3167 324.098 40.1236Z" fill="#FFC8E4"/>
</g>
<g clip-path="url(#clip5_42002_3019)">
<path d="M326.651 107.028C329.181 107.319 331.468 105.503 331.759 102.973C332.05 100.442 330.235 98.155 327.704 97.8641C325.174 97.5731 322.887 99.3886 322.596 101.919C322.305 104.45 324.12 106.737 326.651 107.028Z" fill="#C8FFDF"/>
<path d="M329.705 107.379L326.651 107.028L323.596 106.677C321.07 106.386 318.778 108.205 318.488 110.732L318.312 112.259C318.215 113.102 318.82 113.865 319.664 113.962L331.882 115.367C332.725 115.464 333.488 114.858 333.585 114.015L333.76 112.488C334.051 109.961 332.232 107.669 329.705 107.379Z" fill="#C8FFDF"/>
<path d="M339.518 116.245C342.049 116.536 344.336 114.72 344.627 112.19C344.918 109.659 343.102 107.372 340.572 107.081C338.041 106.79 335.754 108.605 335.463 111.136C335.172 113.666 336.988 115.954 339.518 116.245Z" fill="#C8FFDF"/>
<path d="M312.027 113.084C314.558 113.375 316.845 111.559 317.136 109.029C317.427 106.498 315.611 104.211 313.081 103.92C310.55 103.629 308.263 105.445 307.972 107.975C307.681 110.506 309.497 112.793 312.027 113.084Z" fill="#C8FFDF"/>
<path d="M305.04 120.018L311.226 120.729C313.642 119.318 316.315 118.337 319.146 117.88C319.079 115.629 317.384 113.7 315.082 113.435L312.027 113.084L308.973 112.732C306.446 112.442 304.155 114.261 303.864 116.788L303.688 118.315C303.591 119.158 304.197 119.921 305.04 120.018Z" fill="#C8FFDF"/>
<path d="M338.563 123.872L344.749 124.583C345.593 124.68 346.355 124.075 346.452 123.232L346.628 121.704C346.918 119.178 345.1 116.886 342.573 116.596L339.518 116.245L336.464 115.893C334.162 115.629 332.073 117.123 331.497 119.3C334.15 120.388 336.531 121.949 338.563 123.872Z" fill="#C8FFDF"/>
<path d="M325.246 119.246C313.443 117.889 302.764 126.383 301.406 138.17L344.169 143.086C345.521 131.299 337.049 120.603 325.246 119.246ZM312.272 137.871L307.69 137.345L308.129 133.526C308.178 133.105 308.559 132.802 308.981 132.851L312.035 133.202C312.457 133.25 312.76 133.631 312.711 134.053L312.272 137.871ZM318.381 138.574L313.799 138.047L314.941 128.12C314.989 127.698 315.371 127.395 315.792 127.444L318.847 127.795C319.269 127.844 319.571 128.225 319.523 128.647L318.381 138.574ZM324.49 139.276L319.909 138.749L321.752 122.713C321.801 122.291 322.182 121.989 322.604 122.037L325.658 122.388C326.08 122.437 326.383 122.818 326.334 123.24L324.49 139.276ZM330.6 139.979L326.018 139.452L327.335 127.997C327.383 127.575 327.764 127.273 328.186 127.321L331.241 127.673C331.662 127.721 331.965 128.102 331.917 128.524L330.6 139.979ZM336.045 139.721L336.033 139.83C335.984 140.252 335.603 140.554 335.181 140.505C334.759 140.457 334.457 140.076 334.506 139.654L334.518 139.546C333.244 139.053 332.403 137.755 332.566 136.336C332.614 135.914 332.995 135.612 333.417 135.66C333.839 135.709 334.142 136.09 334.093 136.512C333.996 137.354 334.602 138.118 335.445 138.215C336.287 138.311 337.051 137.705 337.148 136.863C337.244 136.021 336.639 135.257 335.796 135.16C334.112 134.966 332.899 133.439 333.093 131.754C333.256 130.335 334.37 129.262 335.722 129.072L335.735 128.963C335.783 128.541 336.164 128.239 336.586 128.287C337.008 128.336 337.311 128.717 337.262 129.139L337.25 129.247C338.524 129.74 339.365 131.037 339.202 132.457C339.153 132.879 338.772 133.181 338.35 133.132C337.928 133.084 337.626 132.703 337.674 132.281C337.771 131.439 337.165 130.675 336.323 130.578C335.48 130.481 334.717 131.088 334.62 131.93C334.523 132.772 335.129 133.536 335.972 133.633C337.655 133.826 338.869 135.354 338.675 137.038C338.512 138.458 337.398 139.531 336.045 139.721Z" fill="#C8FFDF"/>
</g>
<defs>
<linearGradient id="paint0_linear_42002_3019" x1="199.697" y1="47.9811" x2="254.589" y2="143.063" gradientUnits="userSpaceOnUse">
<stop stop-color="#DA006A"/>
<stop offset="1" stop-color="#733BE4"/>
</linearGradient>
<linearGradient id="paint1_linear_42002_3019" x1="196.762" y1="58.9478" x2="243.624" y2="140.121" gradientUnits="userSpaceOnUse">
<stop stop-color="#EEBD2F"/>
<stop offset="1" stop-color="#DA5618"/>
</linearGradient>
<linearGradient id="paint2_linear_42002_3019" x1="203.787" y1="155.443" x2="178.016" y2="146.158" gradientUnits="userSpaceOnUse">
<stop stop-color="#5899FF"/>
<stop offset="1" stop-color="#4F39EE"/>
</linearGradient>
<linearGradient id="paint3_linear_42002_3019" x1="212.09" y1="152.462" x2="202.643" y2="150.275" gradientUnits="userSpaceOnUse">
<stop stop-color="#5899FF"/>
<stop offset="1" stop-color="#4F39EE"/>
</linearGradient>
<linearGradient id="paint4_linear_42002_3019" x1="209.866" y1="149.719" x2="201.051" y2="148.413" gradientUnits="userSpaceOnUse">
<stop stop-color="#F1CC60"/>
<stop offset="0.31" stop-color="#F5E2AA"/>
<stop offset="1" stop-color="#E59F2F"/>
</linearGradient>
<linearGradient id="paint5_linear_42002_3019" x1="206.16" y1="160.653" x2="181.496" y2="150.338" gradientUnits="userSpaceOnUse">
<stop stop-color="#F1CC60"/>
<stop offset="0.31" stop-color="#F5E2AA"/>
<stop offset="1" stop-color="#E59F2F"/>
</linearGradient>
<linearGradient id="paint6_linear_42002_3019" x1="181.166" y1="107.215" x2="202.527" y2="107.215" gradientUnits="userSpaceOnUse">
<stop stop-color="#F1CC60"/>
<stop offset="0.31" stop-color="#F5E2AA"/>
<stop offset="1" stop-color="#E59F2F"/>
</linearGradient>
<linearGradient id="paint7_linear_42002_3019" x1="204.775" y1="98.9963" x2="224.569" y2="133.283" gradientUnits="userSpaceOnUse">
<stop stop-color="#F1CC60"/>
<stop offset="0.31" stop-color="#F5E2AA"/>
<stop offset="1" stop-color="#E59F2F"/>
</linearGradient>
<linearGradient id="paint8_linear_42002_3019" x1="207.605" y1="95.0656" x2="227.928" y2="130.268" gradientUnits="userSpaceOnUse">
<stop stop-color="#F1CC60"/>
<stop offset="0.31" stop-color="#F5E2AA"/>
<stop offset="1" stop-color="#E59F2F"/>
</linearGradient>
<linearGradient id="paint9_linear_42002_3019" x1="211.358" y1="90.5032" x2="232.252" y2="126.695" gradientUnits="userSpaceOnUse">
<stop stop-color="#F1CC60"/>
<stop offset="0.31" stop-color="#F5E2AA"/>
<stop offset="1" stop-color="#E59F2F"/>
</linearGradient>
<linearGradient id="paint10_linear_42002_3019" x1="158.544" y1="155.443" x2="184.315" y2="146.158" gradientUnits="userSpaceOnUse">
<stop stop-color="#5899FF"/>
<stop offset="1" stop-color="#4F39EE"/>
</linearGradient>
<linearGradient id="paint11_linear_42002_3019" x1="150.241" y1="152.462" x2="159.688" y2="150.275" gradientUnits="userSpaceOnUse">
<stop stop-color="#5899FF"/>
<stop offset="1" stop-color="#4F39EE"/>
</linearGradient>
<linearGradient id="paint12_linear_42002_3019" x1="152.465" y1="149.719" x2="161.28" y2="148.413" gradientUnits="userSpaceOnUse">
<stop stop-color="#F1CC60"/>
<stop offset="0.31" stop-color="#F5E2AA"/>
<stop offset="1" stop-color="#E59F2F"/>
</linearGradient>
<linearGradient id="paint13_linear_42002_3019" x1="156.171" y1="160.653" x2="180.835" y2="150.338" gradientUnits="userSpaceOnUse">
<stop stop-color="#F1CC60"/>
<stop offset="0.31" stop-color="#F5E2AA"/>
<stop offset="1" stop-color="#E59F2F"/>
</linearGradient>
<linearGradient id="paint14_linear_42002_3019" x1="181.166" y1="107.215" x2="159.805" y2="107.215" gradientUnits="userSpaceOnUse">
<stop stop-color="#F1CC60"/>
<stop offset="0.31" stop-color="#F5E2AA"/>
<stop offset="1" stop-color="#E59F2F"/>
</linearGradient>
<linearGradient id="paint15_linear_42002_3019" x1="199.563" y1="123.247" x2="179.769" y2="157.533" gradientUnits="userSpaceOnUse">
<stop stop-color="#F1CC60"/>
<stop offset="0.31" stop-color="#F5E2AA"/>
<stop offset="1" stop-color="#E59F2F"/>
</linearGradient>
<linearGradient id="paint16_linear_42002_3019" x1="204.792" y1="123.969" x2="184.469" y2="159.172" gradientUnits="userSpaceOnUse">
<stop stop-color="#F1CC60"/>
<stop offset="0.31" stop-color="#F5E2AA"/>
<stop offset="1" stop-color="#E59F2F"/>
</linearGradient>
<linearGradient id="paint17_linear_42002_3019" x1="210.981" y1="125.146" x2="190.087" y2="161.338" gradientUnits="userSpaceOnUse">
<stop stop-color="#F1CC60"/>
<stop offset="0.31" stop-color="#F5E2AA"/>
<stop offset="1" stop-color="#E59F2F"/>
</linearGradient>
<linearGradient id="paint18_linear_42002_3019" x1="172.903" y1="54.239" x2="216.758" y2="105.969" gradientUnits="userSpaceOnUse">
<stop stop-color="#5899FF"/>
<stop offset="1" stop-color="#4F39EE"/>
</linearGradient>
<linearGradient id="paint19_linear_42002_3019" x1="163.382" y1="101.369" x2="187.665" y2="101.369" gradientUnits="userSpaceOnUse">
<stop stop-color="#514FF2"/>
<stop offset="0.305" stop-color="#5899FF"/>
<stop offset="1" stop-color="#4F39EE"/>
</linearGradient>
<linearGradient id="paint20_linear_42002_3019" x1="175.068" y1="51.7346" x2="245.693" y2="150.159" gradientUnits="userSpaceOnUse">
<stop stop-color="#5899FF"/>
<stop offset="1" stop-color="#4F39EE"/>
</linearGradient>
<linearGradient id="paint21_linear_42002_3019" x1="180.372" y1="88.1442" x2="187.092" y2="97.5091" gradientUnits="userSpaceOnUse">
<stop stop-color="#5899FF"/>
<stop offset="1" stop-color="#4F39EE"/>
</linearGradient>
<linearGradient id="paint22_linear_42002_3019" x1="195.909" y1="111.681" x2="197.133" y2="111.681" gradientUnits="userSpaceOnUse">
<stop stop-color="#EEBD2F"/>
<stop offset="1" stop-color="#DA5618"/>
</linearGradient>
<radialGradient id="paint23_radial_42002_3019" cx="0" cy="0" r="1" gradientUnits="userSpaceOnUse" gradientTransform="translate(196.522 113.007) scale(1.06121 1.0612)">
<stop stop-color="#E79927"/>
<stop offset="1" stop-color="#DD661C"/>
</radialGradient>
<linearGradient id="paint24_linear_42002_3019" x1="180.865" y1="91.5944" x2="196.929" y2="91.5944" gradientUnits="userSpaceOnUse">
<stop stop-color="#EEBD2F"/>
<stop offset="1" stop-color="#DA5618"/>
</linearGradient>
<radialGradient id="paint25_radial_42002_3019" cx="0" cy="0" r="1" gradientUnits="userSpaceOnUse" gradientTransform="translate(213.055 73.3416) rotate(33.0528) scale(3.98768 3.98757)">
<stop stop-color="#E79927"/>
<stop offset="1" stop-color="#DD661C"/>
</radialGradient>
<radialGradient id="paint26_radial_42002_3019" cx="0" cy="0" r="1" gradientUnits="userSpaceOnUse" gradientTransform="translate(197.467 73.3416) rotate(33.0528) scale(3.98768 3.98757)">
<stop stop-color="#E79927"/>
<stop offset="1" stop-color="#DD661C"/>
</radialGradient>
<radialGradient id="paint27_radial_42002_3019" cx="0" cy="0" r="1" gradientUnits="userSpaceOnUse" gradientTransform="translate(163.151 73.3416) rotate(33.056) scale(3.98782 3.98771)">
<stop stop-color="#E79927"/>
<stop offset="1" stop-color="#DD661C"/>
</radialGradient>
<radialGradient id="paint28_radial_42002_3019" cx="0" cy="0" r="1" gradientUnits="userSpaceOnUse" gradientTransform="translate(147.562 73.3416) rotate(33.056) scale(3.98782 3.98771)">
<stop stop-color="#E79927"/>
<stop offset="1" stop-color="#DD661C"/>
</radialGradient>
<clipPath id="clip0_42002_3019">
<rect width="48" height="46" fill="white" transform="translate(55.5793 19) rotate(4.46274)"/>
</clipPath>
<clipPath id="clip1_42002_3019">
<rect width="48" height="47" fill="white" transform="translate(12 96.228) rotate(-5.05341)"/>
</clipPath>
<clipPath id="clip2_42002_3019">
<rect width="55.1559" height="56.3295" fill="white" transform="translate(56.7083 162) rotate(4.7947)"/>
</clipPath>
<clipPath id="clip3_42002_3019">
<rect width="48" height="48" fill="white" transform="translate(252 169.602) rotate(-3.1067)"/>
</clipPath>
<clipPath id="clip4_42002_3019">
<rect width="47" height="46" fill="white" transform="translate(284 22.7252) rotate(-4.54604)"/>
</clipPath>
<clipPath id="clip5_42002_3019">
<rect width="49.1949" height="49.1949" fill="white" transform="translate(303.619 92) rotate(6.5589)"/>
</clipPath>
</defs>
</svg>
